<svg width="128" height="128" viewBox="0 0 24 24" xmlns="http://www.w3.org/2000/svg" role="img" aria-label="Gear">
  <defs>
    <linearGradient id="grad-gear" x1="0" y1="0" x2="1" y2="1">
      <stop offset="0%" stop-color="#F18585"/>
      <stop offset="100%" stop-color="#C174F2"/>
    </linearGradient>
  </defs>
  <!-- Cercle dégradé -->
  <circle cx="12" cy="12" r="12" fill="url(#grad-gear)"/>
  <!-- Icône engrenage blanc -->
  <path fill="#fff" d="M19.14 12.94c.04-.31.06-.63.06-.94s-.02-.63-.06-.94l2.03-1.58a.5.5 0 0 0 .12-.66l-1.92-3.32a.5.5 0 0 0-.61-.22l-2.39.96a6.93 6.93 0 0 0-1.63-.94l-.36-2.54A.5.5 0 0 0 14.3 2h-4.6a.5.5 0 0 0-.5.42l-.36 2.54a6.93 6.93 0 0 0-1.63.94l-2.39-.96a.5.5 0 0 0-.61.22L2.29 8.82a.5.5 0 0 0 .12.66l2.03 1.58c-.04.31-.06.63-.06.94s.02.63.06.94l-2.03 1.58a.5.5 0 0 0-.12.66l1.92 3.32c.14.24.42.34.68.22l2.39-.96c.5.38 1.05.7 1.63.94l.36 2.54c.04.25.25.42.5.42h4.6c.25 0 .46-.17.5-.42l.36-2.54c.58-.24 1.13-.56 1.63-.94l2.39.96c.26.12.54.02.68-.22l1.92-3.32a.5.5 0 0 0-.12-.66l-2.03-1.58ZM12 15.5A3.5 3.5 0 1 1 15.5 12 3.5 3.5 0 0 1 12 15.5Z"/>
</svg>
